<mxfile host="drawio-plugin" modified="2022-12-05T01:25:54.079Z" agent="5.0 (Macintosh; Intel Mac OS X 10_15_7) AppleWebKit/537.36 (KHTML, like Gecko) Chrome/104.0.5112.102 Safari/537.36" etag="Hc7yik-9uZE9w7LvxIPI" version="20.5.3" type="embed"><diagram id="23iRSUPoRavnBvh4doch" name="Page-1"><mxGraphModel dx="1177" dy="772" grid="1" gridSize="10" guides="1" tooltips="1" connect="1" arrows="1" fold="1" page="1" pageScale="1" pageWidth="827" pageHeight="1169" background="#283618" math="0" shadow="0"><root><mxCell id="0"/><mxCell id="1" parent="0"/><mxCell id="2" value="&lt;font style=&quot;font-size: 8px;&quot;&gt;Start&lt;/font&gt;" style="ellipse;whiteSpace=wrap;html=1;aspect=fixed;" vertex="1" parent="1"><mxGeometry x="80" y="500" width="40" height="40" as="geometry"/></mxCell><mxCell id="3" value="&lt;font style=&quot;font-size: 8px;&quot;&gt;Buy&lt;/font&gt;" style="ellipse;whiteSpace=wrap;html=1;aspect=fixed;container=0;" vertex="1" parent="1"><mxGeometry x="280" y="360" width="40" height="40" as="geometry"/></mxCell><mxCell id="5" value="&amp;nbsp;?&amp;nbsp;" style="edgeStyle=orthogonalEdgeStyle;rounded=0;orthogonalLoop=1;jettySize=auto;html=1;fontSize=8;fillColor=#ffe6cc;strokeColor=#00FF6E;curved=1;" edge="1" parent="1" source="2" target="3"><mxGeometry x="-0.0668" y="30" relative="1" as="geometry"><mxPoint as="offset"/></mxGeometry></mxCell><mxCell id="18" style="edgeStyle=orthogonalEdgeStyle;curved=1;rounded=0;orthogonalLoop=1;jettySize=auto;html=1;strokeColor=#00FF6E;fontSize=8;" edge="1" parent="1" source="3" target="11"><mxGeometry relative="1" as="geometry"/></mxCell><mxCell id="44" value="&amp;nbsp;?&amp;nbsp;" style="edgeLabel;html=1;align=center;verticalAlign=middle;resizable=0;points=[];fontSize=8;" vertex="1" connectable="0" parent="18"><mxGeometry x="0.0052" y="-1" relative="1" as="geometry"><mxPoint x="-1" y="-21" as="offset"/></mxGeometry></mxCell><mxCell id="15" style="edgeStyle=orthogonalEdgeStyle;curved=1;rounded=0;orthogonalLoop=1;jettySize=auto;html=1;strokeColor=#00FF6E;fontSize=8;" edge="1" parent="1" source="3" target="14"><mxGeometry relative="1" as="geometry"/></mxCell><mxCell id="45" value="&amp;nbsp;?&amp;nbsp;" style="edgeLabel;html=1;align=center;verticalAlign=middle;resizable=0;points=[];fontSize=8;" vertex="1" connectable="0" parent="15"><mxGeometry x="0.1007" y="-2" relative="1" as="geometry"><mxPoint x="-19" y="18" as="offset"/></mxGeometry></mxCell><mxCell id="7" value="&lt;font style=&quot;font-size: 8px;&quot;&gt;Sell&lt;/font&gt;" style="ellipse;whiteSpace=wrap;html=1;aspect=fixed;" vertex="1" parent="1"><mxGeometry x="280" y="640" width="40" height="40" as="geometry"/></mxCell><mxCell id="8" value="&amp;nbsp;?&amp;nbsp;" style="edgeStyle=orthogonalEdgeStyle;curved=1;rounded=0;orthogonalLoop=1;jettySize=auto;html=1;strokeColor=#00FF6E;fontSize=8;" edge="1" parent="1" source="2" target="7"><mxGeometry x="-0.0668" y="-30" relative="1" as="geometry"><mxPoint as="offset"/></mxGeometry></mxCell><mxCell id="17" style="edgeStyle=orthogonalEdgeStyle;curved=1;rounded=0;orthogonalLoop=1;jettySize=auto;html=1;strokeColor=#00FF6E;fontSize=8;" edge="1" parent="1" source="7" target="12"><mxGeometry relative="1" as="geometry"/></mxCell><mxCell id="46" value="&amp;nbsp;?&amp;nbsp;" style="edgeLabel;html=1;align=center;verticalAlign=middle;resizable=0;points=[];fontSize=8;" vertex="1" connectable="0" parent="17"><mxGeometry x="0.0317" y="1" relative="1" as="geometry"><mxPoint x="-13" y="-19" as="offset"/></mxGeometry></mxCell><mxCell id="16" style="edgeStyle=orthogonalEdgeStyle;curved=1;rounded=0;orthogonalLoop=1;jettySize=auto;html=1;strokeColor=#00FF6E;fontSize=8;" edge="1" parent="1" source="7" target="13"><mxGeometry relative="1" as="geometry"/></mxCell><mxCell id="47" value="&amp;nbsp;?&amp;nbsp;" style="edgeLabel;html=1;align=center;verticalAlign=middle;resizable=0;points=[];fontSize=8;" vertex="1" connectable="0" parent="16"><mxGeometry x="-0.0121" y="-1" relative="1" as="geometry"><mxPoint x="1" y="19" as="offset"/></mxGeometry></mxCell><mxCell id="42" value="" style="endArrow=none;dashed=1;html=1;dashPattern=1 2;strokeWidth=4;rounded=0;strokeColor=#FFFF99;fontSize=8;" edge="1" parent="1"><mxGeometry width="50" height="50" relative="1" as="geometry"><mxPoint x="200" y="760" as="sourcePoint"/><mxPoint x="200" y="280" as="targetPoint"/></mxGeometry></mxCell><mxCell id="35" value="&lt;font style=&quot;font-size: 8px;&quot;&gt;end&lt;/font&gt;" style="ellipse;whiteSpace=wrap;html=1;aspect=fixed;container=0;" vertex="1" parent="1"><mxGeometry x="600" y="500" width="40" height="40" as="geometry"/></mxCell><mxCell id="11" value="&lt;font style=&quot;font-size: 8px;&quot;&gt;Buy&lt;/font&gt;" style="ellipse;whiteSpace=wrap;html=1;aspect=fixed;container=0;" vertex="1" parent="1"><mxGeometry x="400" y="280" width="40" height="40" as="geometry"/></mxCell><mxCell id="37" style="rounded=0;orthogonalLoop=1;jettySize=auto;html=1;strokeColor=#CCCCCC;fontSize=8;dashed=1;" edge="1" parent="1" source="11" target="35"><mxGeometry relative="1" as="geometry"/></mxCell><mxCell id="14" value="&lt;font style=&quot;font-size: 8px;&quot;&gt;Sell&lt;/font&gt;" style="ellipse;whiteSpace=wrap;html=1;aspect=fixed;container=0;" vertex="1" parent="1"><mxGeometry x="400" y="460" width="40" height="40" as="geometry"/></mxCell><mxCell id="36" style="rounded=0;orthogonalLoop=1;jettySize=auto;html=1;strokeColor=#CCCCCC;fontSize=8;dashed=1;" edge="1" parent="1" source="14" target="35"><mxGeometry relative="1" as="geometry"/></mxCell><mxCell id="12" value="&lt;font style=&quot;font-size: 8px;&quot;&gt;Buy&lt;/font&gt;" style="ellipse;whiteSpace=wrap;html=1;aspect=fixed;" vertex="1" parent="1"><mxGeometry x="400" y="540" width="40" height="40" as="geometry"/></mxCell><mxCell id="38" style="rounded=0;orthogonalLoop=1;jettySize=auto;html=1;strokeColor=#CCCCCC;fontSize=8;dashed=1;" edge="1" parent="1" source="12" target="35"><mxGeometry relative="1" as="geometry"/></mxCell><mxCell id="13" value="&lt;font style=&quot;font-size: 8px;&quot;&gt;Sell&lt;/font&gt;" style="ellipse;whiteSpace=wrap;html=1;aspect=fixed;" vertex="1" parent="1"><mxGeometry x="400" y="720" width="40" height="40" as="geometry"/></mxCell><mxCell id="39" style="rounded=0;orthogonalLoop=1;jettySize=auto;html=1;strokeColor=#CCCCCC;fontSize=8;dashed=1;" edge="1" parent="1" source="13" target="35"><mxGeometry relative="1" as="geometry"/></mxCell><mxCell id="43" value="" style="endArrow=none;dashed=1;html=1;dashPattern=1 2;strokeWidth=4;rounded=0;strokeColor=#FFFF99;fontSize=8;" edge="1" parent="1"><mxGeometry width="50" height="50" relative="1" as="geometry"><mxPoint x="520" y="760" as="sourcePoint"/><mxPoint x="520" y="280" as="targetPoint"/></mxGeometry></mxCell></root></mxGraphModel></diagram></mxfile>
